# xmcd CD database file
#
# Track frame offsets:
#	150
#	31239
#	53085
#	89909
#	104540
#	138968
#	151958
#	171602
#	194588
#	210950
#
# Disc length: 3265 seconds
#
# Revision: 0
# Processed by: cddbd v1.5.2PL0 Copyright (c) Steve Scherf et al.
# Submitted via: CDex 1.70beta2
#
DISCID=8d0cbf0a
DTITLE=Antoine Prawerman and Vegetal beauty - Troposphere
DYEAR=2008
DGENRE=Jazz
TTITLE0=ouma yé
TTITLE1=Aimer comme on aime ses enfants
TTITLE2=Pop 36
TTITLE3=Blanche neige
TTITLE4=Homme sage
TTITLE5=Enfants sages
TTITLE6=Sage femme
TTITLE7=Abakbaaa
TTITLE8=Bleue
TTITLE9=Les rayons du soleil
EXTD=YEAR: 2008
EXTT0=
EXTT1=
EXTT2=
EXTT3=
EXTT4=
EXTT5=
EXTT6=
EXTT7=
EXTT8=
EXTT9=
PLAYORDER=
